<svg width="34" height="33" viewBox="0 0 34 33" fill="none" xmlns="http://www.w3.org/2000/svg">
<g filter="url(#filter0_d_72_16)">
<path fill-rule="evenodd" clip-rule="evenodd" d="M10.4678 0.494892C12.1126 0.419171 12.6371 0.402344 16.827 0.402344C21.0169 0.402344 21.5413 0.420573 23.1848 0.494892C24.8282 0.569211 25.95 0.831432 26.9316 1.21144C27.9594 1.59986 28.8919 2.20704 29.6632 2.9923C30.4484 3.76213 31.0542 4.69322 31.4412 5.72247C31.8226 6.70405 32.0834 7.82584 32.1592 9.46647C32.2349 11.1141 32.2517 11.6386 32.2517 15.8271C32.2517 20.017 32.2335 20.5414 32.1592 22.1863C32.0848 23.8269 31.8226 24.9487 31.4412 25.9303C31.0542 26.9596 30.4474 27.8923 29.6632 28.6632C28.8919 29.4485 27.9594 30.0543 26.9316 30.4413C25.95 30.8227 24.8282 31.0835 23.1876 31.1592C21.5413 31.235 21.0169 31.2518 16.827 31.2518C12.6371 31.2518 12.1126 31.2336 10.4678 31.1592C8.82716 31.0849 7.70536 30.8227 6.72378 30.4413C5.69442 30.0542 4.76179 29.4475 3.9908 28.6632C3.20608 27.893 2.59881 26.9608 2.21135 25.9317C1.83134 24.9501 1.57052 23.8283 1.4948 22.1877C1.41908 20.54 1.40225 20.0156 1.40225 15.8271C1.40225 11.6372 1.42048 11.1127 1.4948 9.46928C1.56912 7.82584 1.83134 6.70405 2.21135 5.72247C2.59938 4.69334 3.20711 3.76117 3.9922 2.99089C4.76209 2.20634 5.69379 1.59908 6.72238 1.21144C7.70395 0.831432 8.82575 0.570613 10.4664 0.494892H10.4678ZM23.06 3.27134C21.4334 3.19702 20.9454 3.1816 16.827 3.1816C12.7086 3.1816 12.2206 3.19702 10.594 3.27134C9.08938 3.34005 8.27327 3.59106 7.72919 3.80279C7.00984 4.08324 6.49522 4.41558 5.95535 4.95544C5.44359 5.45331 5.04975 6.05941 4.8027 6.72929C4.59096 7.27336 4.33996 8.08947 4.27125 9.59408C4.19693 11.2207 4.18151 11.7087 4.18151 15.8271C4.18151 19.9455 4.19693 20.4335 4.27125 22.0601C4.33996 23.5647 4.59096 24.3808 4.8027 24.9249C5.0495 25.5937 5.44353 26.2009 5.95535 26.6987C6.45315 27.2105 7.06032 27.6046 7.72919 27.8513C8.27327 28.0631 9.08938 28.3141 10.594 28.3828C12.2206 28.4571 12.7072 28.4725 16.827 28.4725C20.9468 28.4725 21.4334 28.4571 23.06 28.3828C24.5646 28.3141 25.3807 28.0631 25.9248 27.8513C26.6441 27.5709 27.1587 27.2386 27.6986 26.6987C28.2104 26.2009 28.6045 25.5937 28.8513 24.9249C29.063 24.3808 29.314 23.5647 29.3827 22.0601C29.457 20.4335 29.4725 19.9455 29.4725 15.8271C29.4725 11.7087 29.457 11.2207 29.3827 9.59408C29.314 8.08947 29.063 7.27336 28.8513 6.72929C28.5708 6.00993 28.2385 5.49531 27.6986 4.95544C27.2007 4.44372 26.5946 4.04989 25.9248 3.80279C25.3807 3.59106 24.5646 3.34005 23.06 3.27134V3.27134ZM14.8568 20.5821C15.9571 21.0401 17.1823 21.1019 18.3231 20.757C19.4639 20.412 20.4495 19.6817 21.1117 18.6908C21.7739 17.6999 22.0715 16.5098 21.9537 15.3238C21.8359 14.1378 21.31 13.0295 20.4658 12.1882C19.9277 11.6504 19.277 11.2387 18.5606 10.9825C17.8442 10.7264 17.08 10.6322 16.3229 10.7069C15.5657 10.7816 14.8346 11.0232 14.1821 11.4144C13.5295 11.8055 12.9718 12.3365 12.5491 12.9691C12.1264 13.6016 11.8493 14.3201 11.7375 15.0726C11.6258 15.8252 11.6823 16.5931 11.903 17.3212C12.1237 18.0493 12.5031 18.7194 13.0139 19.2832C13.5246 19.8471 14.154 20.2907 14.8568 20.5821ZM11.2208 10.2209C11.957 9.48467 12.831 8.90067 13.7929 8.50223C14.7548 8.1038 15.7858 7.89872 16.827 7.89872C17.8681 7.89872 18.8991 8.1038 19.861 8.50223C20.8229 8.90067 21.697 9.48467 22.4332 10.2209C23.1694 10.9571 23.7534 11.8311 24.1518 12.793C24.5503 13.7549 24.7553 14.7859 24.7553 15.8271C24.7553 16.8682 24.5503 17.8992 24.1518 18.8611C23.7534 19.823 23.1694 20.697 22.4332 21.4333C20.9463 22.9201 18.9297 23.7554 16.827 23.7554C14.7243 23.7554 12.7076 22.9201 11.2208 21.4333C9.73394 19.9464 8.89863 17.9298 8.89863 15.8271C8.89863 13.7243 9.73394 11.7077 11.2208 10.2209V10.2209ZM26.5137 9.07945C26.6961 8.90735 26.8422 8.7004 26.9432 8.47084C27.0442 8.24128 27.0982 7.99379 27.1018 7.74301C27.1055 7.49224 27.0588 7.24328 26.9645 7.01087C26.8702 6.77847 26.7303 6.56734 26.5529 6.39C26.3756 6.21265 26.1644 6.07269 25.932 5.97841C25.6996 5.88412 25.4507 5.83742 25.1999 5.84108C24.9491 5.84473 24.7016 5.89867 24.4721 5.99969C24.2425 6.10071 24.0356 6.24677 23.8635 6.42921C23.5288 6.78402 23.3455 7.2553 23.3526 7.74301C23.3597 8.23073 23.5566 8.69647 23.9015 9.04137C24.2464 9.38628 24.7122 9.58318 25.1999 9.59029C25.6876 9.5974 26.1589 9.41416 26.5137 9.07945V9.07945Z" fill="#F8F8F8"/>
</g>
<defs>
<filter id="filter0_d_72_16" x="-2.59775" y="0.402344" width="38.8495" height="38.8494" filterUnits="userSpaceOnUse" color-interpolation-filters="sRGB">
<feFlood flood-opacity="0" result="BackgroundImageFix"/>
<feColorMatrix in="SourceAlpha" type="matrix" values="0 0 0 0 0 0 0 0 0 0 0 0 0 0 0 0 0 0 127 0" result="hardAlpha"/>
<feOffset dy="4"/>
<feGaussianBlur stdDeviation="2"/>
<feComposite in2="hardAlpha" operator="out"/>
<feColorMatrix type="matrix" values="0 0 0 0 0 0 0 0 0 0 0 0 0 0 0 0 0 0 0.25 0"/>
<feBlend mode="normal" in2="BackgroundImageFix" result="effect1_dropShadow_72_16"/>
<feBlend mode="normal" in="SourceGraphic" in2="effect1_dropShadow_72_16" result="shape"/>
</filter>
</defs>
</svg>
